<?xml version="1.0" standalone="no"?>
<!DOCTYPE svg PUBLIC "-//W3C//DTD SVG 20010904//EN"
 "http://www.w3.org/TR/2001/REC-SVG-20010904/DTD/svg10.dtd">
<svg version="1.0" xmlns="http://www.w3.org/2000/svg"
 width="300.000000pt" height="300.000000pt" viewBox="0 0 300.000000 300.000000"
 preserveAspectRatio="xMidYMid meet">
<metadata>
Created by potrace 1.14, written by Peter Selinger 2001-2017
</metadata>
<g transform="translate(0.000000,300.000000) scale(0.100000,-0.100000)"
fill="#000000" stroke="none">
<path d="M1350 2909 c-941 -167 -1460 -1162 -1055 -2024 98 -208 291 -434 483
-564 186 -126 403 -209 627 -239 127 -17 387 -5 495 23 170 43 353 123 478
207 101 68 113 79 222 188 96 96 163 182 215 275 l27 50 -53 -50 c-134 -126
-293 -214 -479 -268 -114 -33 -143 -37 -295 -42 -336 -10 -645 116 -882 361
-183 189 -288 409 -328 688 -7 50 -8 220 -1 266 3 19 8 53 11 75 18 119 96
318 172 437 114 179 302 344 496 433 169 78 308 109 494 110 57 0 103 1 103 3
0 11 -179 58 -289 76 -122 19 -318 17 -441 -5z"/>
</g>
</svg>
